<svg width="69" height="24" viewBox="0 0 69 24" fill="none" xmlns="http://www.w3.org/2000/svg">
    <path d="M10.868 14.0816H4.466L3.366 17.2056H0.748L6.226 1.89357H9.13L14.608 17.2056H11.968L10.868 14.0816ZM10.164 12.0356L7.678 4.92957L5.17 12.0356H10.164ZM30.7838 4.88557C31.7372 4.88557 32.5878 5.08357 33.3358 5.47957C34.0985 5.87557 34.6925 6.46223 35.1178 7.23957C35.5578 8.0169 35.7778 8.95557 35.7778 10.0556V17.2056H33.2918V10.4296C33.2918 9.34423 33.0205 8.51557 32.4778 7.94357C31.9352 7.3569 31.1945 7.06357 30.2558 7.06357C29.3172 7.06357 28.5692 7.3569 28.0118 7.94357C27.4692 8.51557 27.1978 9.34423 27.1978 10.4296V17.2056H24.7118V10.4296C24.7118 9.34423 24.4405 8.51557 23.8978 7.94357C23.3552 7.3569 22.6145 7.06357 21.6758 7.06357C20.7372 7.06357 19.9892 7.3569 19.4318 7.94357C18.8892 8.51557 18.6178 9.34423 18.6178 10.4296V17.2056H16.1098V5.08357H18.6178V6.46957C19.0285 5.9709 19.5492 5.58223 20.1798 5.30357C20.8105 5.0249 21.4852 4.88557 22.2038 4.88557C23.1718 4.88557 24.0372 5.0909 24.7998 5.50157C25.5625 5.91223 26.1492 6.50623 26.5598 7.28357C26.9265 6.55023 27.4985 5.9709 28.2758 5.54557C29.0532 5.10557 29.8892 4.88557 30.7838 4.88557ZM39.3652 3.47757C38.9106 3.47757 38.5292 3.32357 38.2212 3.01557C37.9132 2.70757 37.7592 2.32623 37.7592 1.87157C37.7592 1.4169 37.9132 1.03557 38.2212 0.727566C38.5292 0.419566 38.9106 0.265566 39.3652 0.265566C39.8052 0.265566 40.1792 0.419566 40.4872 0.727566C40.7952 1.03557 40.9492 1.4169 40.9492 1.87157C40.9492 2.32623 40.7952 2.70757 40.4872 3.01557C40.1792 3.32357 39.8052 3.47757 39.3652 3.47757ZM40.5972 5.08357V17.2056H38.0892V5.08357H40.5972ZM47.894 4.88557C48.8327 4.88557 49.6613 5.07623 50.38 5.45757C51.1133 5.82423 51.6853 6.28623 52.096 6.84357V5.08357H54.626V17.4036C54.626 18.5182 54.3913 19.5082 53.922 20.3736C53.4527 21.2536 52.7707 21.9429 51.876 22.4416C50.996 22.9402 49.94 23.1896 48.708 23.1896C47.0653 23.1896 45.7013 22.8009 44.616 22.0236C43.5307 21.2609 42.9147 20.2196 42.768 18.8996H45.254C45.4447 19.5302 45.848 20.0362 46.464 20.4176C47.0947 20.8136 47.8427 21.0116 48.708 21.0116C49.72 21.0116 50.534 20.7036 51.15 20.0876C51.7807 19.4716 52.096 18.5769 52.096 17.4036V15.3796C51.6707 15.9516 51.0913 16.4356 50.358 16.8316C49.6393 17.2129 48.818 17.4036 47.894 17.4036C46.838 17.4036 45.87 17.1396 44.99 16.6116C44.1247 16.0689 43.4353 15.3209 42.922 14.3676C42.4233 13.3996 42.174 12.3069 42.174 11.0896C42.174 9.87223 42.4233 8.79423 42.922 7.85557C43.4353 6.9169 44.1247 6.1909 44.99 5.67757C45.87 5.14957 46.838 4.88557 47.894 4.88557ZM52.096 11.1336C52.096 10.2976 51.92 9.57157 51.568 8.95557C51.2307 8.33957 50.7833 7.87023 50.226 7.54757C49.6687 7.2249 49.0673 7.06357 48.422 7.06357C47.7767 7.06357 47.1753 7.2249 46.618 7.54757C46.0607 7.85557 45.606 8.31757 45.254 8.93357C44.9167 9.5349 44.748 10.2536 44.748 11.0896C44.748 11.9256 44.9167 12.6589 45.254 13.2896C45.606 13.9202 46.0607 14.4042 46.618 14.7416C47.19 15.0642 47.7913 15.2256 48.422 15.2256C49.0673 15.2256 49.6687 15.0642 50.226 14.7416C50.7833 14.4189 51.2307 13.9496 51.568 13.3336C51.92 12.7029 52.096 11.9696 52.096 11.1336ZM56.2042 11.0896C56.2042 9.87223 56.4535 8.79423 56.9522 7.85557C57.4655 6.9169 58.1548 6.1909 59.0202 5.67757C59.9002 5.14957 60.8682 4.88557 61.9242 4.88557C62.8775 4.88557 63.7062 5.07623 64.4102 5.45757C65.1288 5.82423 65.7008 6.28623 66.1262 6.84357V5.08357H68.6562V17.2056H66.1262V15.4016C65.7008 15.9736 65.1215 16.4502 64.3882 16.8316C63.6548 17.2129 62.8188 17.4036 61.8802 17.4036C60.8388 17.4036 59.8855 17.1396 59.0202 16.6116C58.1548 16.0689 57.4655 15.3209 56.9522 14.3676C56.4535 13.3996 56.2042 12.3069 56.2042 11.0896ZM66.1262 11.1336C66.1262 10.2976 65.9502 9.57157 65.5982 8.95557C65.2608 8.33957 64.8135 7.87023 64.2562 7.54757C63.6988 7.2249 63.0975 7.06357 62.4522 7.06357C61.8068 7.06357 61.2055 7.2249 60.6482 7.54757C60.0908 7.85557 59.6362 8.31757 59.2842 8.93357C58.9468 9.5349 58.7782 10.2536 58.7782 11.0896C58.7782 11.9256 58.9468 12.6589 59.2842 13.2896C59.6362 13.9202 60.0908 14.4042 60.6482 14.7416C61.2202 15.0642 61.8215 15.2256 62.4522 15.2256C63.0975 15.2256 63.6988 15.0642 64.2562 14.7416C64.8135 14.4189 65.2608 13.9496 65.5982 13.3336C65.9502 12.7029 66.1262 11.9696 66.1262 11.1336Z"
          fill="#040404"/>
</svg>
