<svg width="42" height="17" viewBox="0 0 42 17" fill="none" xmlns="http://www.w3.org/2000/svg">
    <path d="M9.11965 8.146C9.94098 8.29267 10.6376 8.72533 11.2096 9.444C11.7816 10.1627 12.0676 10.9767 12.0676 11.886C12.0676 12.6633 11.8623 13.3673 11.4516 13.998C11.0556 14.614 10.4763 15.1053 9.71365 15.472C8.95098 15.824 8.06364 16 7.05164 16H0.935645V0.709999H6.76564C7.80698 0.709999 8.70164 0.885999 9.44964 1.238C10.1976 1.59 10.7623 2.06667 11.1436 2.668C11.525 3.25467 11.7156 3.91467 11.7156 4.648C11.7156 5.528 11.481 6.26133 11.0116 6.848C10.5423 7.43467 9.91165 7.86733 9.11965 8.146ZM3.44364 7.134H6.54564C7.36698 7.134 8.00498 6.95067 8.45965 6.584C8.92898 6.20267 9.16365 5.66 9.16365 4.956C9.16365 4.26667 8.92898 3.73133 8.45965 3.35C8.00498 2.954 7.36698 2.756 6.54564 2.756H3.44364V7.134ZM6.83165 13.954C7.68231 13.954 8.34964 13.7487 8.83364 13.338C9.31764 12.9273 9.55964 12.3553 9.55964 11.622C9.55964 10.874 9.30298 10.28 8.78964 9.84C8.27631 9.4 7.59431 9.18 6.74364 9.18H3.44364V13.954H6.83165ZM13.0771 9.884C13.0771 8.66667 13.3264 7.58867 13.8251 6.65C14.3384 5.71133 15.0277 4.98533 15.8931 4.472C16.7731 3.944 17.7411 3.68 18.7971 3.68C19.7504 3.68 20.5791 3.87067 21.2831 4.252C22.0017 4.61867 22.5737 5.08067 22.9991 5.638V3.878H25.5291V16H22.9991V14.196C22.5737 14.768 21.9944 15.2447 21.2611 15.626C20.5277 16.0073 19.6917 16.198 18.7531 16.198C17.7117 16.198 16.7584 15.934 15.8931 15.406C15.0277 14.8633 14.3384 14.1153 13.8251 13.162C13.3264 12.194 13.0771 11.1013 13.0771 9.884ZM22.9991 9.928C22.9991 9.092 22.8231 8.366 22.4711 7.75C22.1337 7.134 21.6864 6.66467 21.1291 6.342C20.5717 6.01933 19.9704 5.858 19.3251 5.858C18.6797 5.858 18.0784 6.01933 17.5211 6.342C16.9637 6.65 16.5091 7.112 16.1571 7.728C15.8197 8.32933 15.6511 9.048 15.6511 9.884C15.6511 10.72 15.8197 11.4533 16.1571 12.084C16.5091 12.7147 16.9637 13.1987 17.5211 13.536C18.0931 13.8587 18.6944 14.02 19.3251 14.02C19.9704 14.02 20.5717 13.8587 21.1291 13.536C21.6864 13.2133 22.1337 12.744 22.4711 12.128C22.8231 11.4973 22.9991 10.764 22.9991 9.928ZM30.4512 5.638C30.8179 5.022 31.3019 4.54533 31.9032 4.208C32.5192 3.856 33.2452 3.68 34.0812 3.68V6.276H33.4432C32.4606 6.276 31.7126 6.52533 31.1992 7.024C30.7006 7.52267 30.4512 8.388 30.4512 9.62V16H27.9432V3.878H30.4512V5.638ZM38.4326 5.924V12.634C38.4326 13.0887 38.5352 13.4187 38.7406 13.624C38.9606 13.8147 39.3272 13.91 39.8406 13.91H41.3806V16H39.4006C38.2712 16 37.4059 15.736 36.8046 15.208C36.2032 14.68 35.9026 13.822 35.9026 12.634V5.924H34.4726V3.878H35.9026V0.863999H38.4326V3.878H41.3806V5.924H38.4326Z"
          fill="#040404"/>
</svg>
