<svg width="154" height="39" viewBox="0 0 154 39" fill="none" xmlns="http://www.w3.org/2000/svg">
    <rect x="0.714355" y="0.5" width="38" height="38" fill="#F0F0F0"/>
    <path d="M20.4944 26.5V14.5H17.6144V19.24H12.6344V14.5H9.75436V26.5H12.6344V21.82H17.6144V26.5H20.4944ZM26.5673 26.78C30.0873 26.78 31.5873 25.38 31.5873 23.08C31.5873 21.34 30.7873 19.94 27.0673 19.28C24.7073 18.86 24.3673 18.36 24.3673 17.66C24.3673 16.9 24.9673 16.46 26.2473 16.46C27.6873 16.46 28.1673 17.08 28.4473 18.3L31.3073 17.74C30.9673 15.68 29.6473 14.22 26.3873 14.22C23.1073 14.22 21.5273 15.56 21.5273 17.82C21.5273 19.8 22.5473 21.1 25.8673 21.62C28.1473 22 28.6873 22.44 28.6873 23.28C28.6873 24.04 28.0273 24.48 26.6873 24.48C25.2073 24.48 24.1873 23.82 23.9073 22.38L21.1673 22.96C21.4273 25.04 22.7273 26.76 26.5673 26.78Z"
          fill="#1D1F23"/>
    <path d="M65.2764 27.5V14.3H63.2524V19.998H56.2124V14.3H54.1884V27.5H56.2124V21.824H63.2524V27.5H65.2764ZM71.6277 18.48C73.5197 18.48 74.4217 19.58 74.5097 21.538H68.5037C68.7237 19.492 69.8237 18.48 71.6277 18.48ZM71.7157 27.742C74.3777 27.742 75.6977 26.51 76.2037 24.552L74.5317 24.09C74.2017 25.234 73.5637 26.158 71.7157 26.158C69.7357 26.158 68.6357 25.014 68.4817 22.924H76.2257C76.2697 22.462 76.2917 22 76.2917 21.692C76.2917 18.854 74.7517 16.962 71.6717 16.962C68.5697 16.962 66.5677 19.008 66.5677 22.44C66.5677 25.85 68.5257 27.742 71.7157 27.742ZM79.5 13.376H77.586V27.5H79.5V13.376ZM85.8305 18.48C87.7225 18.48 88.6245 19.58 88.7125 21.538H82.7065C82.9265 19.492 84.0265 18.48 85.8305 18.48ZM85.9185 27.742C88.5805 27.742 89.9005 26.51 90.4065 24.552L88.7345 24.09C88.4045 25.234 87.7665 26.158 85.9185 26.158C83.9385 26.158 82.8385 25.014 82.6845 22.924H90.4285C90.4725 22.462 90.4945 22 90.4945 21.692C90.4945 18.854 88.9545 16.962 85.8745 16.962C82.7725 16.962 80.7705 19.008 80.7705 22.44C80.7705 25.85 82.7285 27.742 85.9185 27.742ZM93.5929 21.626C93.5929 19.866 94.8249 18.7 96.6509 18.7C98.3009 18.7 98.8729 19.756 98.8729 21.164V27.5H100.787V20.702C100.787 18.458 99.7529 16.962 97.4649 16.962C95.6829 16.962 94.3189 18.062 93.7469 19.888H93.5489V17.226H91.6789V27.5H93.5929V21.626ZM107.524 27.764C111.132 27.764 112.628 26.246 112.628 23.914C112.628 22.066 111.682 20.702 107.854 19.976C104.972 19.448 104.356 18.7 104.356 17.6C104.356 16.412 105.236 15.686 107.128 15.686C109.174 15.686 109.9 16.588 110.296 18.348L112.298 17.952C111.792 15.598 110.472 14.036 107.216 14.036C103.982 14.036 102.354 15.466 102.354 17.71C102.354 19.712 103.52 21.054 107.128 21.692C109.768 22.154 110.604 22.77 110.604 24.046C110.604 25.278 109.68 26.092 107.59 26.092C105.324 26.092 104.092 25.036 103.718 22.968L101.804 23.386C102.156 25.938 103.74 27.742 107.524 27.764ZM115.767 21.626C115.767 19.866 116.999 18.7 118.825 18.7C120.431 18.7 121.047 19.756 121.047 21.164V27.5H122.961V21.626C122.961 19.866 124.149 18.7 126.019 18.7C127.625 18.7 128.241 19.756 128.241 21.164V27.5H130.155V20.702C130.155 18.458 129.077 16.962 126.789 16.962C124.743 16.962 123.533 18.15 123.049 20.042H122.851C122.653 18.172 121.663 16.962 119.639 16.962C117.813 16.962 116.493 18.04 115.921 19.888H115.723V17.226H113.853V27.5H115.767V21.626ZM134.145 15.246V13.508H131.945V15.246H134.145ZM133.991 27.5V17.226H132.077V27.5H133.991ZM136.643 24.442C136.643 26.356 137.589 27.764 139.745 27.764C140.691 27.764 141.241 27.632 141.945 27.412L141.703 25.718C141.153 25.872 140.691 25.982 140.141 25.982C138.997 25.982 138.557 25.388 138.557 24.222V18.81H141.835V17.226H138.557V14.344H136.643V17.226H135.081V18.81H136.643V24.442ZM144.773 21.626C144.773 19.866 145.983 18.7 147.853 18.7C149.437 18.7 150.053 19.756 150.053 21.164V27.5H151.967V20.702C151.967 18.458 150.933 16.962 148.689 16.962C146.819 16.962 145.521 18.084 144.927 19.888H144.773V13.376H142.859V27.5H144.773V21.626Z"
          fill="#F0F0F0"/>
</svg>
