<svg width="154" height="39" viewBox="0 0 154 39" fill="none" xmlns="http://www.w3.org/2000/svg">
    <rect x="0.714355" y="0.705566" width="38" height="38" fill="#C0C0C0"/>
    <path d="M20.4944 26.7056V14.7056H17.6144V19.4456H12.6344V14.7056H9.75436V26.7056H12.6344V22.0256H17.6144V26.7056H20.4944ZM26.5673 26.9856C30.0873 26.9856 31.5873 25.5856 31.5873 23.2856C31.5873 21.5456 30.7873 20.1456 27.0673 19.4856C24.7073 19.0656 24.3673 18.5656 24.3673 17.8656C24.3673 17.1056 24.9673 16.6656 26.2473 16.6656C27.6873 16.6656 28.1673 17.2856 28.4473 18.5056L31.3073 17.9456C30.9673 15.8856 29.6473 14.4256 26.3873 14.4256C23.1073 14.4256 21.5273 15.7656 21.5273 18.0256C21.5273 20.0056 22.5473 21.3056 25.8673 21.8256C28.1473 22.2056 28.6873 22.6456 28.6873 23.4856C28.6873 24.2456 28.0273 24.6856 26.6873 24.6856C25.2073 24.6856 24.1873 24.0256 23.9073 22.5856L21.1673 23.1656C21.4273 25.2456 22.7273 26.9656 26.5673 26.9856Z"
          fill="white"/>
    <path d="M65.2764 27.7056V14.5056H63.2524V20.2036H56.2124V14.5056H54.1884V27.7056H56.2124V22.0296H63.2524V27.7056H65.2764ZM71.6277 18.6856C73.5197 18.6856 74.4217 19.7856 74.5097 21.7436H68.5037C68.7237 19.6976 69.8237 18.6856 71.6277 18.6856ZM71.7157 27.9476C74.3777 27.9476 75.6977 26.7156 76.2037 24.7576L74.5317 24.2956C74.2017 25.4396 73.5637 26.3636 71.7157 26.3636C69.7357 26.3636 68.6357 25.2196 68.4817 23.1296H76.2257C76.2697 22.6676 76.2917 22.2056 76.2917 21.8976C76.2917 19.0596 74.7517 17.1676 71.6717 17.1676C68.5697 17.1676 66.5677 19.2136 66.5677 22.6456C66.5677 26.0556 68.5257 27.9476 71.7157 27.9476ZM79.5 13.5816H77.586V27.7056H79.5V13.5816ZM85.8305 18.6856C87.7225 18.6856 88.6245 19.7856 88.7125 21.7436H82.7065C82.9265 19.6976 84.0265 18.6856 85.8305 18.6856ZM85.9185 27.9476C88.5805 27.9476 89.9005 26.7156 90.4065 24.7576L88.7345 24.2956C88.4045 25.4396 87.7665 26.3636 85.9185 26.3636C83.9385 26.3636 82.8385 25.2196 82.6845 23.1296H90.4285C90.4725 22.6676 90.4945 22.2056 90.4945 21.8976C90.4945 19.0596 88.9545 17.1676 85.8745 17.1676C82.7725 17.1676 80.7705 19.2136 80.7705 22.6456C80.7705 26.0556 82.7285 27.9476 85.9185 27.9476ZM93.5929 21.8316C93.5929 20.0716 94.8249 18.9056 96.6509 18.9056C98.3009 18.9056 98.8729 19.9616 98.8729 21.3696V27.7056H100.787V20.9076C100.787 18.6636 99.7529 17.1676 97.4649 17.1676C95.6829 17.1676 94.3189 18.2676 93.7469 20.0936H93.5489V17.4316H91.6789V27.7056H93.5929V21.8316ZM107.524 27.9696C111.132 27.9696 112.628 26.4516 112.628 24.1196C112.628 22.2716 111.682 20.9076 107.854 20.1816C104.972 19.6536 104.356 18.9056 104.356 17.8056C104.356 16.6176 105.236 15.8916 107.128 15.8916C109.174 15.8916 109.9 16.7936 110.296 18.5536L112.298 18.1576C111.792 15.8036 110.472 14.2416 107.216 14.2416C103.982 14.2416 102.354 15.6716 102.354 17.9156C102.354 19.9176 103.52 21.2596 107.128 21.8976C109.768 22.3596 110.604 22.9756 110.604 24.2516C110.604 25.4836 109.68 26.2976 107.59 26.2976C105.324 26.2976 104.092 25.2416 103.718 23.1736L101.804 23.5916C102.156 26.1436 103.74 27.9476 107.524 27.9696ZM115.767 21.8316C115.767 20.0716 116.999 18.9056 118.825 18.9056C120.431 18.9056 121.047 19.9616 121.047 21.3696V27.7056H122.961V21.8316C122.961 20.0716 124.149 18.9056 126.019 18.9056C127.625 18.9056 128.241 19.9616 128.241 21.3696V27.7056H130.155V20.9076C130.155 18.6636 129.077 17.1676 126.789 17.1676C124.743 17.1676 123.533 18.3556 123.049 20.2476H122.851C122.653 18.3776 121.663 17.1676 119.639 17.1676C117.813 17.1676 116.493 18.2456 115.921 20.0936H115.723V17.4316H113.853V27.7056H115.767V21.8316ZM134.145 15.4516V13.7136H131.945V15.4516H134.145ZM133.991 27.7056V17.4316H132.077V27.7056H133.991ZM136.643 24.6476C136.643 26.5616 137.589 27.9696 139.745 27.9696C140.691 27.9696 141.241 27.8376 141.945 27.6176L141.703 25.9236C141.153 26.0776 140.691 26.1876 140.141 26.1876C138.997 26.1876 138.557 25.5936 138.557 24.4276V19.0156H141.835V17.4316H138.557V14.5496H136.643V17.4316H135.081V19.0156H136.643V24.6476ZM144.773 21.8316C144.773 20.0716 145.983 18.9056 147.853 18.9056C149.437 18.9056 150.053 19.9616 150.053 21.3696V27.7056H151.967V20.9076C151.967 18.6636 150.933 17.1676 148.689 17.1676C146.819 17.1676 145.521 18.2896 144.927 20.0936H144.773V13.5816H142.859V27.7056H144.773V21.8316Z"
          fill="#040404"/>
</svg>
