<svg width="142" height="22" viewBox="0 0 142 22" fill="none" xmlns="http://www.w3.org/2000/svg">
    <path d="M5.42282 16.4696C3.98549 16.4696 2.84149 16.0662 1.99082 15.2596C1.15482 14.4529 0.736822 13.3162 0.736822 11.8496H3.06882C3.06882 12.5829 3.24482 13.1916 3.59682 13.6756C3.96349 14.1596 4.55749 14.4016 5.37882 14.4016C6.18549 14.4016 6.75749 14.1742 7.09482 13.7196C7.43216 13.2502 7.60082 12.6562 7.60082 11.9376V0.805565H9.93282V11.9376C9.93282 13.3896 9.52949 14.5116 8.72282 15.3036C7.91616 16.0809 6.81616 16.4696 5.42282 16.4696ZM17.1846 16.4696C16.1432 16.4696 15.2046 16.2349 14.3686 15.7656C13.5472 15.2816 12.8946 14.6142 12.4106 13.7636C11.9266 12.8982 11.6846 11.8936 11.6846 10.7496C11.6846 9.60557 11.9266 8.60823 12.4106 7.75757C12.9092 6.89223 13.5766 6.2249 14.4126 5.75557C15.2486 5.27157 16.1799 5.02957 17.2066 5.02957C18.2479 5.02957 19.1792 5.27157 20.0006 5.75557C20.8366 6.2249 21.4966 6.89223 21.9806 7.75757C22.4792 8.60823 22.7286 9.60557 22.7286 10.7496C22.7286 11.8936 22.4792 12.8982 21.9806 13.7636C21.4966 14.6142 20.8366 15.2816 20.0006 15.7656C19.1646 16.2349 18.2259 16.4696 17.1846 16.4696ZM17.1846 14.4676C17.7419 14.4676 18.2552 14.3282 18.7246 14.0496C19.2086 13.7709 19.5972 13.3602 19.8906 12.8176C20.1839 12.2602 20.3306 11.5709 20.3306 10.7496C20.3306 9.92823 20.1839 9.24623 19.8906 8.70357C19.6119 8.14623 19.2306 7.72823 18.7466 7.44957C18.2772 7.1709 17.7639 7.03157 17.2066 7.03157C16.6492 7.03157 16.1286 7.1709 15.6446 7.44957C15.1752 7.72823 14.7939 8.14623 14.5006 8.70357C14.2072 9.24623 14.0606 9.92823 14.0606 10.7496C14.0606 11.5709 14.2072 12.2602 14.5006 12.8176C14.7939 13.3602 15.1752 13.7709 15.6446 14.0496C16.1139 14.3282 16.6272 14.4676 17.1846 14.4676ZM24.3705 16.2056V0.365566H26.7025V7.05357C27.0692 6.4229 27.5752 5.93157 28.2205 5.57957C28.8805 5.2129 29.6065 5.02957 30.3985 5.02957C31.7038 5.02957 32.7305 5.44023 33.4785 6.26157C34.2265 7.0829 34.6005 8.30757 34.6005 9.93557V16.2056H32.2905V10.1776C32.2905 8.06557 31.4472 7.00957 29.7605 7.00957C28.8805 7.00957 28.1472 7.31757 27.5605 7.93357C26.9885 8.54957 26.7025 9.42957 26.7025 10.5736V16.2056H24.3705ZM36.4671 16.2056V5.29357H38.5351L38.7111 7.20757C39.0484 6.5329 39.5397 6.0049 40.1851 5.62357C40.8451 5.22757 41.6004 5.02957 42.4511 5.02957C43.7711 5.02957 44.8051 5.44023 45.5531 6.26157C46.3157 7.0829 46.6971 8.30757 46.6971 9.93557V16.2056H44.3871V10.1776C44.3871 8.06557 43.5217 7.00957 41.7911 7.00957C40.9257 7.00957 40.2071 7.31757 39.6351 7.93357C39.0777 8.54957 38.7991 9.42957 38.7991 10.5736V16.2056H36.4671ZM52.9196 16.4696C51.541 16.4696 50.4043 16.1322 49.5096 15.4576C48.615 14.7829 48.1016 13.8882 47.9696 12.7736H50.3236C50.441 13.2722 50.7196 13.7049 51.1596 14.0716C51.5996 14.4236 52.179 14.5996 52.8976 14.5996C53.6016 14.5996 54.115 14.4529 54.4376 14.1596C54.7603 13.8662 54.9216 13.5289 54.9216 13.1476C54.9216 12.5902 54.6943 12.2162 54.2396 12.0256C53.7996 11.8202 53.1836 11.6369 52.3916 11.4756C51.7756 11.3436 51.1596 11.1676 50.5436 10.9476C49.9423 10.7276 49.4363 10.4196 49.0256 10.0236C48.6296 9.6129 48.4316 9.0629 48.4316 8.37357C48.4316 7.42023 48.7983 6.62823 49.5316 5.99757C50.265 5.35223 51.2916 5.02957 52.6116 5.02957C53.829 5.02957 54.8116 5.3229 55.5596 5.90957C56.3223 6.49623 56.7696 7.3249 56.9016 8.39557H54.6576C54.5843 7.92623 54.3643 7.55957 53.9976 7.29557C53.6456 7.03157 53.169 6.89957 52.5676 6.89957C51.981 6.89957 51.5263 7.02423 51.2036 7.27357C50.881 7.50823 50.7196 7.81623 50.7196 8.19757C50.7196 8.5789 50.9396 8.87957 51.3796 9.09957C51.8343 9.31957 52.4283 9.51757 53.1616 9.69357C53.895 9.8549 54.5696 10.0456 55.1856 10.2656C55.8163 10.4709 56.3223 10.7789 56.7036 11.1896C57.085 11.6002 57.2756 12.2016 57.2756 12.9936C57.2903 13.9909 56.9016 14.8196 56.1096 15.4796C55.3323 16.1396 54.269 16.4696 52.9196 16.4696ZM64.0454 16.4696C63.0041 16.4696 62.0654 16.2349 61.2294 15.7656C60.4081 15.2816 59.7554 14.6142 59.2714 13.7636C58.7874 12.8982 58.5454 11.8936 58.5454 10.7496C58.5454 9.60557 58.7874 8.60823 59.2714 7.75757C59.7701 6.89223 60.4374 6.2249 61.2734 5.75557C62.1094 5.27157 63.0408 5.02957 64.0674 5.02957C65.1088 5.02957 66.0401 5.27157 66.8614 5.75557C67.6974 6.2249 68.3574 6.89223 68.8414 7.75757C69.3401 8.60823 69.5894 9.60557 69.5894 10.7496C69.5894 11.8936 69.3401 12.8982 68.8414 13.7636C68.3574 14.6142 67.6974 15.2816 66.8614 15.7656C66.0254 16.2349 65.0868 16.4696 64.0454 16.4696ZM64.0454 14.4676C64.6028 14.4676 65.1161 14.3282 65.5854 14.0496C66.0694 13.7709 66.4581 13.3602 66.7514 12.8176C67.0448 12.2602 67.1914 11.5709 67.1914 10.7496C67.1914 9.92823 67.0448 9.24623 66.7514 8.70357C66.4728 8.14623 66.0914 7.72823 65.6074 7.44957C65.1381 7.1709 64.6248 7.03157 64.0674 7.03157C63.5101 7.03157 62.9894 7.1709 62.5054 7.44957C62.0361 7.72823 61.6548 8.14623 61.3614 8.70357C61.0681 9.24623 60.9214 9.92823 60.9214 10.7496C60.9214 11.5709 61.0681 12.2602 61.3614 12.8176C61.6548 13.3602 62.0361 13.7709 62.5054 14.0496C62.9748 14.3282 63.4881 14.4676 64.0454 14.4676ZM71.2314 16.2056V5.29357H73.2994L73.4754 7.20757C73.8127 6.5329 74.304 6.0049 74.9494 5.62357C75.6094 5.22757 76.3647 5.02957 77.2154 5.02957C78.5354 5.02957 79.5694 5.44023 80.3174 6.26157C81.08 7.0829 81.4614 8.30757 81.4614 9.93557V16.2056H79.1514V10.1776C79.1514 8.06557 78.286 7.00957 76.5554 7.00957C75.69 7.00957 74.9714 7.31757 74.3994 7.93357C73.842 8.54957 73.5634 9.42957 73.5634 10.5736V16.2056H71.2314ZM88.1679 16.4696C87.0679 16.4696 86.1072 16.2789 85.2859 15.8976C84.4792 15.5016 83.8486 14.9516 83.3939 14.2476C82.9392 13.5436 82.7119 12.7222 82.7119 11.7836C82.7119 10.7569 82.9979 9.84023 83.5699 9.03357C84.1566 8.2269 85.0146 7.58157 86.1439 7.09757C85.6746 6.56957 85.3372 6.0709 85.1319 5.60157C84.9266 5.13223 84.8239 4.6189 84.8239 4.06157C84.8239 3.04957 85.1906 2.21357 85.9239 1.55357C86.6572 0.878899 87.6766 0.541566 88.9819 0.541566C89.8326 0.541566 90.5659 0.702899 91.1819 1.02557C91.7979 1.34823 92.2672 1.7809 92.5899 2.32357C92.9126 2.86623 93.0666 3.48223 93.0519 4.17157H90.7859C90.8006 3.5849 90.6172 3.13757 90.2359 2.82957C89.8692 2.52157 89.4439 2.36757 88.9599 2.36757C88.3879 2.36757 87.9332 2.5289 87.5959 2.85157C87.2586 3.15957 87.0899 3.55557 87.0899 4.03957C87.0899 4.4649 87.2072 4.8829 87.4419 5.29357C87.6912 5.70423 88.0652 6.16623 88.5639 6.67957L93.1399 11.2776C93.5066 10.7202 93.9026 10.0602 94.3279 9.29757L94.8999 8.21957H97.3199L96.4399 9.82557C95.8386 10.9989 95.2446 11.9816 94.6579 12.7736L98.0899 16.2056H95.2299L93.3599 14.3356C92.5972 15.0836 91.7979 15.6262 90.9619 15.9636C90.1259 16.3009 89.1946 16.4696 88.1679 16.4696ZM84.9779 11.6516C84.9779 12.4729 85.2712 13.1549 85.8579 13.6976C86.4592 14.2402 87.2439 14.5116 88.2119 14.5116C88.9306 14.5116 89.5832 14.3869 90.1699 14.1376C90.7566 13.8736 91.3286 13.4482 91.8859 12.8616L87.5079 8.48357C86.6572 8.83557 86.0192 9.2829 85.5939 9.82557C85.1832 10.3536 84.9779 10.9622 84.9779 11.6516ZM99.0789 16.2056V0.805565H104.887C106.486 0.805565 107.696 1.17957 108.517 1.92757C109.338 2.67557 109.749 3.61423 109.749 4.74357C109.749 5.72623 109.485 6.5109 108.957 7.09757C108.429 7.66957 107.791 8.05823 107.043 8.26357C107.63 8.3809 108.15 8.61557 108.605 8.96757C109.074 9.31957 109.441 9.75957 109.705 10.2876C109.969 10.8156 110.101 11.3876 110.101 12.0036C110.101 12.7956 109.903 13.5142 109.507 14.1596C109.126 14.7902 108.561 15.2889 107.813 15.6556C107.065 16.0222 106.148 16.2056 105.063 16.2056H99.0789ZM101.411 7.40557H104.601C105.496 7.40557 106.178 7.20023 106.647 6.78957C107.116 6.36423 107.351 5.7849 107.351 5.05157C107.351 4.3329 107.116 3.7609 106.647 3.33557C106.192 2.91023 105.496 2.69757 104.557 2.69757H101.411V7.40557ZM101.411 14.2916H104.755C105.694 14.2916 106.42 14.0716 106.933 13.6316C107.461 13.1916 107.725 12.5756 107.725 11.7836C107.725 10.9916 107.454 10.3682 106.911 9.91357C106.368 9.44423 105.635 9.20957 104.711 9.20957H101.411V14.2916ZM116.793 16.4696C115.722 16.4696 114.769 16.2349 113.933 15.7656C113.112 15.2816 112.466 14.6142 111.997 13.7636C111.528 12.9129 111.293 11.9229 111.293 10.7936C111.293 9.64957 111.52 8.6449 111.975 7.77957C112.444 6.91423 113.09 6.23957 113.911 5.75557C114.747 5.27157 115.715 5.02957 116.815 5.02957C117.886 5.02957 118.817 5.27157 119.609 5.75557C120.401 6.2249 121.017 6.85557 121.457 7.64757C121.897 8.43957 122.117 9.31223 122.117 10.2656C122.117 10.4122 122.11 10.5736 122.095 10.7496C122.095 10.9109 122.088 11.0942 122.073 11.2996H113.581C113.654 12.3556 113.999 13.1622 114.615 13.7196C115.246 14.2622 115.972 14.5336 116.793 14.5336C117.453 14.5336 118.003 14.3869 118.443 14.0936C118.898 13.7856 119.235 13.3749 119.455 12.8616H121.787C121.494 13.8882 120.907 14.7462 120.027 15.4356C119.162 16.1249 118.084 16.4696 116.793 16.4696ZM116.793 6.94357C116.016 6.94357 115.326 7.17823 114.725 7.64757C114.124 8.10223 113.757 8.79157 113.625 9.71557H119.785C119.741 8.8649 119.44 8.19023 118.883 7.69157C118.326 7.1929 117.629 6.94357 116.793 6.94357ZM123.657 16.2056V5.29357H125.747L125.945 7.36157C126.326 6.6429 126.854 6.07823 127.529 5.66757C128.218 5.24223 129.047 5.02957 130.015 5.02957V7.47157H129.377C128.731 7.47157 128.152 7.58157 127.639 7.80157C127.14 8.0069 126.737 8.36623 126.429 8.87957C126.135 9.37823 125.989 10.0749 125.989 10.9696V16.2056H123.657ZM135.342 12.8616C134.77 12.8616 134.242 12.7956 133.758 12.6636L132.812 13.5876C132.974 13.6902 133.172 13.7782 133.406 13.8516C133.641 13.9249 133.971 13.9909 134.396 14.0496C134.822 14.1082 135.401 14.1669 136.134 14.2256C137.586 14.3576 138.635 14.7096 139.28 15.2816C139.926 15.8389 140.248 16.5869 140.248 17.5256C140.248 18.1709 140.072 18.7796 139.72 19.3516C139.383 19.9382 138.848 20.4076 138.114 20.7596C137.396 21.1262 136.472 21.3096 135.342 21.3096C133.817 21.3096 132.578 21.0162 131.624 20.4296C130.686 19.8576 130.216 18.9849 130.216 17.8116C130.216 17.3569 130.334 16.9022 130.568 16.4476C130.818 16.0076 131.206 15.5896 131.734 15.1936C131.426 15.0616 131.155 14.9222 130.92 14.7756C130.7 14.6142 130.502 14.4529 130.326 14.2916V13.7636L132.218 11.8276C131.368 11.0942 130.942 10.1336 130.942 8.94557C130.942 8.2269 131.111 7.57423 131.448 6.98757C131.8 6.38623 132.306 5.90957 132.966 5.55757C133.626 5.20557 134.418 5.02957 135.342 5.02957C135.958 5.02957 136.53 5.11757 137.058 5.29357H141.128V6.83357L139.192 6.94357C139.544 7.5449 139.72 8.21223 139.72 8.94557C139.72 9.6789 139.544 10.3389 139.192 10.9256C138.855 11.5122 138.356 11.9816 137.696 12.3336C137.051 12.6856 136.266 12.8616 135.342 12.8616ZM135.342 11.0356C136.017 11.0356 136.56 10.8596 136.97 10.5076C137.396 10.1409 137.608 9.62757 137.608 8.96757C137.608 8.2929 137.396 7.77957 136.97 7.42757C136.56 7.07557 136.017 6.89957 135.342 6.89957C134.653 6.89957 134.096 7.07557 133.67 7.42757C133.26 7.77957 133.054 8.2929 133.054 8.96757C133.054 9.62757 133.26 10.1409 133.67 10.5076C134.096 10.8596 134.653 11.0356 135.342 11.0356ZM132.416 17.5916C132.416 18.2222 132.695 18.6916 133.252 18.9996C133.81 19.3222 134.506 19.4836 135.342 19.4836C136.149 19.4836 136.802 19.3076 137.3 18.9556C137.799 18.6182 138.048 18.1636 138.048 17.5916C138.048 17.1662 137.88 16.7996 137.542 16.4916C137.205 16.1982 136.567 16.0149 135.628 15.9416C134.924 15.8976 134.301 15.8316 133.758 15.7436C133.245 16.0222 132.893 16.3229 132.702 16.6456C132.512 16.9682 132.416 17.2836 132.416 17.5916Z"
          fill="#040404"/>
</svg>
