<svg width="161" height="32" viewBox="0 0 161 32" fill="none" xmlns="http://www.w3.org/2000/svg">
    <circle cx="9.07141" cy="18.2056" r="8.5" fill="#C0C0C0"/>
    <circle cx="30.0714" cy="24.7056" r="6.5" fill="#C0C0C0"/>
    <circle cx="25.5714" cy="5.20557" r="5" fill="#C0C0C0"/>
    <path d="M60.977 14.0884C60.9173 13.5301 60.6659 13.0955 60.2227 12.7844C59.7838 12.4733 59.2127 12.3178 58.5096 12.3178C58.0153 12.3178 57.5913 12.3924 57.2376 12.5415C56.8839 12.6907 56.6133 12.8931 56.4258 13.1487C56.2383 13.4044 56.1424 13.6963 56.1382 14.0245C56.1382 14.2972 56.2 14.5337 56.3235 14.734C56.4514 14.9343 56.624 15.1047 56.8413 15.2453C57.0586 15.3817 57.2994 15.4968 57.5636 15.5905C57.8278 15.6843 58.0941 15.7631 58.3626 15.827L59.5899 16.1338C60.0842 16.2489 60.5593 16.4044 61.0153 16.6005C61.4755 16.7965 61.8868 17.0436 62.249 17.3419C62.6154 17.6402 62.9052 18.0003 63.1183 18.4222C63.3314 18.8441 63.4379 19.3384 63.4379 19.9051C63.4379 20.6722 63.2419 21.3476 62.8498 21.9314C62.4578 22.511 61.891 22.9648 61.1495 23.2929C60.4123 23.6168 59.5196 23.7787 58.4713 23.7787C57.4528 23.7787 56.5686 23.621 55.8186 23.3057C55.0728 22.9904 54.489 22.5301 54.0671 21.925C53.6495 21.3199 53.4237 20.5827 53.3896 19.7134H55.7227C55.7568 20.1693 55.8974 20.5486 56.1446 20.8512C56.3917 21.1537 56.7135 21.3796 57.1098 21.5287C57.5103 21.6779 57.9578 21.7524 58.4521 21.7524C58.9677 21.7524 59.4194 21.6757 59.8072 21.5223C60.1993 21.3647 60.5061 21.1473 60.7277 20.8703C60.9493 20.5891 61.0622 20.261 61.0664 19.886C61.0622 19.5451 60.962 19.2638 60.766 19.0422C60.57 18.8164 60.2951 18.6289 59.9414 18.4797C59.592 18.3263 59.1829 18.1899 58.7142 18.0706L57.2248 17.6871C56.1467 17.4101 55.2944 16.9904 54.668 16.4279C54.0458 15.8611 53.7348 15.109 53.7348 14.1715C53.7348 13.4002 53.9436 12.7247 54.3612 12.1452C54.7831 11.5657 55.3562 11.1161 56.0806 10.7965C56.8051 10.4726 57.6254 10.3107 58.5416 10.3107C59.4706 10.3107 60.2845 10.4726 60.9833 10.7965C61.6865 11.1161 62.2383 11.5614 62.6389 12.1324C63.0395 12.6992 63.2461 13.3512 63.2589 14.0884H60.977ZM77.3068 12.4776V10.4897H87.7514V12.4776H83.7052V23.5806H81.3529V12.4776H77.3068ZM102.095 23.5806V10.4897H110.609V12.4776H104.466V16.0316H110.168V18.0195H104.466V21.5926H110.66V23.5806H102.095ZM125.358 23.5806V10.4897H127.73V21.5926H133.496V23.5806H125.358ZM150.057 23.5806H147.526L152.134 10.4897H155.062L159.677 23.5806H157.146L153.649 13.1743H153.547L150.057 23.5806ZM150.14 18.4478H157.044V20.3526H150.14V18.4478Z"
          fill="#040404"/>
</svg>
